{"title":"Wolf Creek 2005 DVDRip Xvid BigPerm LKRG","uid":6178201,"size":951585591,"categoryP":"video","categoryS":"movies","magnet":"?xt=urn:btih:699248540cfd44936aa31680883ba5d765fed9b7&amp;dn=Wolf+Creek+2005+DVDRip+Xvid+BigPerm+LKRG&amp;tr=udp%3A%2F%2Ftracker.openbittorrent.com%3A80&amp;tr=udp%3A%2F%2Fopen.demonii.com%3A1337&amp;tr=udp%3A%2F%2Ftracker.coppersurfer.tk%3A6969&amp;tr=udp%3A%2F%2Fexodus.desync.com%3A6969","seeders":0,"leechers":1,"uploader":"neon","files":-1,"time":1297850315,"description":"Stranded backpackers in remote Australia fall prey to a murderous bushman who offers to fix their car, then takes them captive.\n\nCast\n\nJohn Jarratt ... Mick Taylor\nCassandra Magrath ... Liz Hunter\nKestie Morassi ... Kristy Ear\nNathan Phillips ... Ben Mitchell\nGordon Poole ... Old Man\nGuy O'Donnell ... Car Salesman\nPhil Stevenson ... Mechanic\nGeoff Revell ... Petrol Attendant\nAndy McPhee ... Bazza\nAaron Sterns ... Bazza's Mate\nMichael Moody ... Bazza's Old Mate\nAndrew Reimer ... Flashback Dad\nVicki Reimer ... Flashback Mum\nIsabella Reimer ... Flashback Girl\nDavid Rock ... Irish Backpacker\n &lt;a href=&quot;\nhttp://www.imdb.com/title/tt0416315/&quot; rel=&quot;nofollow&quot; target=&quot;_NEW&quot;&gt;\nhttp://www.imdb.com/title/tt0416315/&lt;/a&gt; \n &lt;a href=&quot;\nhttp://leetleech.org/images/82990470439161879220.png&quot; rel=&quot;nofollow&quot; target=&quot;_NEW&quot;&gt;\nhttp://leetleech.org/images/82990470439161879220.png&lt;/a&gt; &lt;a href=&quot;\nhttp://leetleech.org/images/34662529576044502111.png&quot; rel=&quot;nofollow&quot; target=&quot;_NEW&quot;&gt;\nhttp://leetleech.org/images/34662529576044502111.png&lt;/a&gt; &lt;a href=&quot;\nhttp://leetleech.org/images/32234000385218532655.png&quot; rel=&quot;nofollow&quot; target=&quot;_NEW&quot;&gt;\nhttp://leetleech.org/images/32234000385218532655.png&lt;/a&gt; &lt;a href=&quot;\nhttp://leetleech.org/images/03533356877137464856.png&quot; rel=&quot;nofollow&quot; target=&quot;_NEW&quot;&gt;\nhttp://leetleech.org/images/03533356877137464856.png&lt;/a&gt;\n &lt;a href=&quot;\nhttp://www.videodetective.com/movies/trailers/wolf-creek-trailer/493710&quot; rel=&quot;nofollow&quot; target=&quot;_NEW&quot;&gt;\nhttp://www.videodetective.com/movies/trailers/wolf-creek-trailer/493710&lt;/a&gt;\n\nGeneral\nComplete name : Wolf Creek 2005 DVDRip Xvid BigPerm LKRG\\WC_LKRG.avi\nFormat : AVI\nFormat/Info : Audio Video Interleave\nFile size : 907 MiB\nDuration : 1h 44mn\nOverall bit rate : 1 216 Kbps\n\nVideo\nID : 0\nFormat : MPEG-4 Visual\nFormat profile : Advanced Simple@L5\nFormat settings, BVOP : Yes\nFormat settings, QPel : No\nFormat settings, GMC : No warppoints\nFormat settings, Matrix : Default (H.263)\nCodec ID : XVID\nCodec ID/Hint : XviD\nDuration : 1h 44mn\nBit rate : 1 019 Kbps\nWidth : 704 pixels\nHeight : 396 pixels\nDisplay aspect ratio : 16:9\nFrame rate : 23.976 fps\nColor space : YUV\nChroma subsampling : 4:2:0\nBit depth : 8 bits\nScan type : Progressive\nCompression mode : Lossy\nBits/(Pixel*Frame) : 0.152\nStream size : 760 MiB (84%)\nWriting library : XviD 1.2.1 (UTC 2008-12-04)\n\nAudio\nID : 1\nFormat : AC-3\nFormat/Info : Audio Coding 3\nMode extension : CM (complete main)\nCodec ID : 2000\nDuration : 1h 44mn\nBit rate mode : Constant\nBit rate : 192 Kbps\nChannel(s) : 2 channels\nChannel positions : Front: L R\nSampling rate : 48.0 KHz\nBit depth : 16 bits\nCompression mode : Lossy\nVideo delay : 42ms\nStream size : 143 MiB (16%)\nAlignment : Split accross interleaves\nInterleave, duration : 500 ms (11.99 video frames)\nInterleave, preload duration : 500 ms\nLanguage : English\n\nAll credit to BigPerm","torrent":{"xt":"urn:btih:699248540cfd44936aa31680883ba5d765fed9b7","amp;dn":"Wolf+Creek+2005+DVDRip+Xvid+BigPerm+LKRG","amp;tr":["udp%3A%2F%2Ftracker.openbittorrent.com%3A80","udp%3A%2F%2Fopen.demonii.com%3A1337","udp%3A%2F%2Ftracker.coppersurfer.tk%3A6969","udp%3A%2F%2Fexodus.desync.com%3A6969"],"infoHash":"699248540cfd44936aa31680883ba5d765fed9b7","infoHashBuffer":{"type":"Buffer","data":[105,146,72,84,12,253,68,147,106,163,22,128,136,59,165,215,101,254,217,183]},"announce":[],"urlList":[]}}